<?xml version="1.0" encoding="UTF-8" standalone="no"?>
<svg
   xmlns:dc="http://purl.org/dc/elements/1.1/"
   xmlns:cc="http://creativecommons.org/ns#"
   xmlns:rdf="http://www.w3.org/1999/02/22-rdf-syntax-ns#"
   xmlns:svg="http://www.w3.org/2000/svg"
   xmlns="http://www.w3.org/2000/svg"
   xmlns:sodipodi="http://sodipodi.sourceforge.net/DTD/sodipodi-0.dtd"
   xmlns:inkscape="http://www.inkscape.org/namespaces/inkscape"
   id="Layer_1"
   viewBox="0 0 750 240"
   width="150px"
   height="48px"
   version="1.1"
   inkscape:version="0.48.4 r9939"
   sodipodi:docname="logo_intergado_animado.svg">
  <metadata
     id="metadata3929">
    <rdf:RDF>
      <cc:Work
         rdf:about="">
        <dc:format>image/svg+xml</dc:format>
        <dc:type
           rdf:resource="http://purl.org/dc/dcmitype/StillImage" />
        <dc:title></dc:title>
      </cc:Work>
    </rdf:RDF>
  </metadata>
  <defs
     id="defs3927" />
  <sodipodi:namedview
     pagecolor="#ffffff"
     bordercolor="#666666"
     borderopacity="1"
     objecttolerance="10"
     gridtolerance="10"
     guidetolerance="10"
     inkscape:pageopacity="0"
     inkscape:pageshadow="2"
     inkscape:window-width="1366"
     inkscape:window-height="705"
     id="namedview3925"
     showgrid="false"
     inkscape:zoom="2.0133333"
     inkscape:cx="75"
     inkscape:cy="24"
     inkscape:window-x="-8"
     inkscape:window-y="275"
     inkscape:window-maximized="1"
     inkscape:current-layer="Layer_1" />
  <style
     id="style11909">
    .st0{fill:#115A81;} .st1{fill:#363532;}
    @keyframes hideshow {
    0% { opacity: 1; }
    30% { opacity: 1; }
    45% { opacity: 0; }
    60% { opacity: 1; }
    100% { opacity: 1; }
    } 

    #logo_p1 {
    animation: hideshow 2.5s ease infinite;
    }

    #logo_p2 {
    animation: hideshow 2.5s .1s ease infinite;
    }

    #logo_p3 {
    animation: hideshow 2.5s .2s ease infinite;
    }
  </style>
  <g
     id="g11911"
     fill="#115a81"
     style="fill:#ffffff">
    <path
       class="st0"
       d="M160.134 143.794h-19.22c-1.54 0-2.615-1.23-2.615-2.92V40.153c0-1.536 1.075-2.767 2.613-2.767h19.22c1.54 0 2.77 1.077 2.77 2.768v100.718c-.155 1.537-1.23 2.92-2.77 2.92z"
       id="path11913"
       style="fill:#ffffff" />
    <path
       class="st0"
       d="M243.476 143.794H226.1c-1.538 0-2.922-1.384-2.922-3.075V93.05c0-9.994-1.845-13.377-10.61-13.377-4.15 0-8.61 2-13.377 4.613v56.28c0 1.537-1.23 3.075-2.92 3.075h-17.376c-1.538 0-3.076-1.383-3.076-3.075V64.45c0-1.537 1.23-2.92 2.922-2.92h15.992c1.537 0 2.92 1.23 2.92 2.92v3.383c7.843-5.535 14.148-7.38 23.374-7.38 20.758 0 25.37 14.454 25.37 32.444v47.668c0 1.692-1.383 3.23-2.92 3.23z"
       id="path11915"
       style="fill:#ffffff" />
    <path
       class="st0"
       d="M302.83 143.948c-4.306.77-7.227 1.076-11.225 1.076-15.684 0-23.988-4.15-23.988-24.45V79.06l-11.38-1.845c-1.536-.307-3.074-1.384-3.074-3.075v-9.38c0-1.538 1.384-3.075 3.075-3.075h11.38V49.996c0-1.537 1.23-2.614 2.92-2.92l17.376-3.077h.462c1.384 0 2.614 1.076 2.614 2.46v15.223h11.686c1.538 0 2.922 1.23 2.922 2.92v11.534c0 1.537-1.23 2.92-2.922 2.92H290.99v41.672c0 5.69.46 6.765 4.767 6.765h7.073c1.845 0 3.075.923 3.075 2.46v11.225c-.307 1.23-1.384 2.46-3.075 2.768z"
       id="path11917"
       style="fill:#ffffff" />
    <path
       class="st0"
       d="M379.56 109.966h-45.67v.307c0 8.15 3.384 15.53 14.762 15.53 9.073 0 21.682-.768 27.525-1.23h.46c1.54 0 2.77.77 2.77 2.307v10.917c0 2.307-.616 3.23-3.076 3.845-9.225 2.306-16.914 3.382-29.37 3.382-17.375 0-35.827-9.226-35.827-36.75V98.28c0-23.066 13.378-37.674 36.136-37.674 23.525 0 35.365 15.992 35.365 37.673v8.303c0 2.152-1.23 3.383-3.075 3.383zM360.03 95.05c0-10.61-4.92-15.838-12.915-15.838-7.842 0-13.224 5.382-13.224 15.838v.615h25.987v-.615z"
       id="path11919"
       style="fill:#ffffff" />
    <path
       class="st0"
       d="M435.07 79.827h-1.077c-7.073 0-13.224 2.153-18.452 5.074v55.973c0 1.537-1.23 3.075-2.92 3.075h-17.376c-1.538 0-3.075-1.384-3.075-3.075V64.758c0-1.538 1.23-2.922 2.92-2.922h17.068c1.538 0 2.922 1.23 2.922 2.922v2.922c5.228-4.46 12.455-6.92 19.375-6.92 1.537 0 2.92 1.23 2.92 2.922v13.53c-.153 1.23-.922 2.615-2.305 2.615z"
       id="path11921"
       style="fill:#ffffff" />
    <path
       class="st0"
       d="M515.028 76.752l-4.46 1.384c1.693 2.614 3.077 7.227 3.077 10.61v1.076c0 18.606-13.07 26.756-35.367 26.756-6.766 0-11.994-1.077-14.915-2.153-1.538 1.076-2 2-2 3.23 0 2.305.923 3.228 4.306 3.997l16.145 3.536c24.91 5.382 33.52 9.226 33.52 23.066v1.076c0 15.684-12.3 23.373-37.518 23.373-23.68 0-36.29-8.304-36.29-23.373v-1.076c0-5.844 2.46-11.225 8.612-15.992-5.076-2.922-7.228-8.61-7.228-13.378 0-5.228 2.768-9.226 6.304-12.148-4.613-3.998-6.612-11.225-6.612-17.068v-1.076c0-16.146 10.764-27.063 35.828-27.063h35.674c2 0 3.537 1.69 3.537 3.69v8.15c0 2.305-.923 2.92-2.615 3.382zm-23.218 71.655c0-2.768-1.846-4.613-14.762-7.38l-10.61-2.307c-1.69 2.46-2.92 4.767-2.92 9.687v1.077c0 4.92 3.228 7.227 14.3 7.227 11.685 0 13.838-3.075 13.838-7.226v-1.077zm-.615-59.508c0-5.844-2.614-10.303-12.763-10.303-10.15 0-13.07 4.46-13.07 10.302v1.076c0 4.92 2.152 9.995 13.07 9.995 9.995 0 12.763-3.844 12.763-9.994V88.9z"
       id="path11923"
       style="fill:#ffffff" />
    <path
       class="st0"
       d="M584.377 143.794h-15.99c-1.54 0-2.923-1.23-2.923-2.92v-2.308c-5.535 3.998-11.225 6.458-19.836 6.458-12.455 0-24.45-5.996-24.45-24.602v-1.23c0-16.76 10.765-24.142 35.214-24.142h7.688v-5.074c0-8.15-3.998-9.84-10.763-9.84-9.227 0-19.375.614-23.68 1.075h-.77c-1.383 0-2.614-.768-2.614-2.613V67.064c0-1.537 1.077-2.767 2.768-3.075 5.23-1.23 15.378-3.076 24.758-3.076 20.605 0 33.52 8.303 33.52 29.216v50.743c0 1.537-1.383 2.92-2.92 2.92zm-19.835-35.06h-8.15c-9.995 0-12.61 3.384-12.61 10.458v1.23c0 5.997 3.076 7.227 9.073 7.227 4.306 0 8.304-1.385 11.687-3.077v-15.838z"
       id="path11925"
       style="fill:#ffffff" />
    <path
       class="st0"
       d="M662.952 141.334c-8.15 2-19.528 3.69-30.445 3.69-23.22 0-35.828-13.377-35.828-36.596V97.203c0-22.45 11.685-36.597 35.827-36.597 2.92 0 7.534.462 11.686 1.077V36.926c0-1.538 1.23-2.92 2.92-2.92h17.377c1.538 0 3.075 1.23 3.075 2.92v100.256c-.153 2.307-.768 3.23-4.613 4.152zm-18.76-60.738c-3.382-.46-8.303-.77-11.685-.77-10.15 0-12.763 7.382-12.763 17.377v11.225c0 10.148 2.614 17.53 12.763 17.53 4.766 0 9.072-.462 11.686-.923v-44.44z"
       id="path11927"
       style="fill:#ffffff" />
    <path
       class="st0"
       d="M712.773 145.024c-23.22 0-35.828-14.454-35.828-37.21v-9.996c0-22.758 12.763-37.212 35.828-37.212 23.22 0 35.828 14.454 35.828 37.212v9.995c0 22.757-12.608 37.21-35.827 37.21zm12.763-47.206c0-11.533-4.46-17.376-12.763-17.376s-12.916 5.843-12.916 17.376v9.995c0 11.532 4.613 17.53 12.916 17.53s12.763-5.998 12.763-17.53v-9.995z"
       id="path11929"
       style="fill:#ffffff" />
  </g>
  <g
     id="g11931"
     style="fill:#ffffff">
    <g
       id="g11933"
       style="fill:#ffffff">
      <path
         class="st1"
         d="M23.59 124.42C23.742 68.602 51.112 20.166 95.243 3.56c-4.305.92-8.61 1.998-12.762 3.382C23.127 26.624-9.01 90.745 10.826 150.1c5.074 15.068 12.917 28.446 22.91 39.67-2.15-4.305-4.15-8.918-5.688-13.685-5.843-17.222-7.073-34.905-4.46-51.665z"
         id="logo_p1"
         fill="#363532"
         style="fill:#ffffff" />
      <path
         class="st0"
         d="M189.657 204.07c-51.358 6.152-101.64-24.448-118.554-75.345-16.146-48.437 2.92-99.95 43.208-127.165-59.353 19.682-91.49 83.803-71.654 143.157 7.996 23.834 23.065 43.208 42.132 56.586 33.368 19.067 72.732 18.914 104.87 2.768z"
         id="logo_p3"
         fill="#115a81"
         style="fill:#ffffff" />
      <path
         class="st1"
         d="M166.285 237.285c-7.074 1.23-14.454 2-21.99 1.845-59.046-1.076-109.48-47.36-112.864-103.485-.614-9.995.462-19.53 2.77-28.447-.616 5.074-.77 10.148-.463 15.53 3.23 55.05 52.896 100.564 110.866 101.64 5.844.154 11.687-.307 17.222-1.076 1.23 4.767 2.768 9.38 4.46 13.993z"
         id="logo_p2"
         fill="#363532"
         style="fill:#ffffff" />
    </g>
  </g>
</svg>
